{"extensionsUsed" : ["KHR_materials_pbrSpecularGlossiness"], "accessors" : [{"bufferView" : 0, "byteOffset" : 0, "componentType" : 5123, "count" : 35271, "type" : "SCALAR", "max" : [35270], "min" : [0]}, {"bufferView" : 1, "byteOffset" : 0, "componentType" : 5126, "count" : 35271, "type" : "VEC3", "max" : [1551134.5, 1551138.5, 1551142.5], "min" : [-745.5382080078125, -741.5382080078125, -737.5382080078125]}, {"bufferView" : 1, "byteOffset" : 12, "componentType" : 5126, "count" : 35271, "type" : "VEC3", "max" : [1551146.5, 1551150.5, 1551154.5], "min" : [-733.5382080078125, -729.5382080078125, -725.5382080078125]}, {"bufferView" : 1, "byteOffset" : 24, "componentType" : 5126, "count" : 35271, "type" : "VEC3", "max" : [1551158.5, 1551162.5, 1551166.5], "min" : [-721.5382080078125, -717.5382080078125, -713.5382080078125]}, {"bufferView" : 1, "byteOffset" : 36, "componentType" : 5126, "count" : 35271, "type" : "VEC2", "max" : [1551170.5, 1551174.5], "min" : [-709.5382080078125, -705.5382080078125]}, {"bufferView" : 0, "byteOffset" : 70544, "componentType" : 5125, "count" : 104556, "type" : "SCALAR", "max" : [104555], "min" : [0]}, {"bufferView" : 9, "byteOffset" : 0, "componentType" : 5126, "count" : 104556, "type" : "VEC3", "max" : [4600684, 4600688, 4600692], "min" : [263.9329528808594, 267.9329528808594, 271.9329528808594]}, {"bufferView" : 9, "byteOffset" : 12, "componentType" : 5126, "count" : 104556, "type" : "VEC3", "max" : [4600696, 4600700, 4600704], "min" : [275.9329528808594, 279.9329528808594, 283.9329528808594]}, {"bufferView" : 9, "byteOffset" : 24, "componentType" : 5126, "count" : 104556, "type" : "VEC3", "max" : [4600708, 4600712, 4600716], "min" : [287.9329528808594, 291.9329528808594, 295.9329528808594]}, {"bufferView" : 9, "byteOffset" : 36, "componentType" : 5126, "count" : 104556, "type" : "VEC2", "max" : [4600720, 4600724], "min" : [299.9329528808594, 303.9329528808594]}], "asset" : {"generator" : "Aspose.3D 20.8", "version" : "2.0"}, "buffers" : [{"uri" : "buffer.bin", "byteLength" : 41769832}], "bufferViews" : [{"buffer" : 0, "byteOffset" : 0, "byteLength" : 488768, "target" : 34963}, {"buffer" : 0, "byteOffset" : 488772, "byteLength" : 1551924, "byteStride" : 44, "target" : 34962}, {"buffer" : 0, "byteOffset" : 2040700, "byteLength" : 19505}, {"buffer" : 0, "byteOffset" : 2060208, "byteLength" : 316785}, {"buffer" : 0, "byteOffset" : 2376996, "byteLength" : 1140160}, {"buffer" : 0, "byteOffset" : 3517160, "byteLength" : 679247}, {"buffer" : 0, "byteOffset" : 4196408, "byteLength" : 19505}, {"buffer" : 0, "byteOffset" : 4215916, "byteLength" : 316785}, {"buffer" : 0, "byteOffset" : 4532704, "byteLength" : 612054}, {"buffer" : 0, "byteOffset" : 5144760, "byteLength" : 4600464, "byteStride" : 44, "target" : 34962}, {"buffer" : 0, "byteOffset" : 9745228, "byteLength" : 145534}, {"buffer" : 0, "byteOffset" : 9890764, "byteLength" : 7522695}, {"buffer" : 0, "byteOffset" : 17413460, "byteLength" : 7702207}, {"buffer" : 0, "byteOffset" : 25115668, "byteLength" : 1890511}, {"buffer" : 0, "byteOffset" : 27006180, "byteLength" : 145534}, {"buffer" : 0, "byteOffset" : 27151716, "byteLength" : 7522695}, {"buffer" : 0, "byteOffset" : 34674412, "byteLength" : 7095416}], "images" : [{"mimeType" : "image/png", "bufferView" : 2}, {"mimeType" : "image/png", "bufferView" : 3}, {"mimeType" : "image/png", "bufferView" : 4}, {"mimeType" : "image/png", "bufferView" : 5}, {"mimeType" : "image/png", "bufferView" : 6}, {"mimeType" : "image/png", "bufferView" : 7}, {"mimeType" : "image/png", "bufferView" : 8}, {"mimeType" : "image/png", "bufferView" : 10}, {"mimeType" : "image/png", "bufferView" : 11}, {"mimeType" : "image/png", "bufferView" : 12}, {"mimeType" : "image/png", "bufferView" : 13}, {"mimeType" : "image/png", "bufferView" : 14}, {"mimeType" : "image/png", "bufferView" : 15}, {"mimeType" : "image/png", "bufferView" : 16}], "materials" : [{"extensions" : {"KHR_materials_pbrSpecularGlossiness" : {"diffuseFactor" : [1, 1, 1, 1], "diffuseTexture" : {"index" : 2, "texCoord" : 0}, "specularFactor" : [1, 1, 1], "glossinessFactor" : 1, "specularGlossinessTexture" : {"index" : 3, "texCoord" : 0, "scale" : 1}}}, "pbrMetallicRoughness" : {"baseColorFactor" : [1, 1, 1, 1], "metallicFactor" : 1, "roughnessFactor" : 1}, "normalTexture" : {"index" : 1, "texCoord" : 0, "scale" : 1}, "emissiveTexture" : {"index" : 0, "texCoord" : 0, "scale" : 1}, "emissiveFactor" : [1, 1, 1], "alphaMode" : "OPAQUE", "doubleSided" : true}, {"extensions" : {"KHR_materials_pbrSpecularGlossiness" : {"diffuseFactor" : [1, 1, 1, 1], "diffuseTexture" : {"index" : 9, "texCoord" : 0}, "specularFactor" : [1, 1, 1], "glossinessFactor" : 1, "specularGlossinessTexture" : {"index" : 10, "texCoord" : 0, "scale" : 1}}}, "pbrMetallicRoughness" : {"baseColorFactor" : [1, 1, 1, 1], "metallicFactor" : 1, "roughnessFactor" : 1}, "normalTexture" : {"index" : 8, "texCoord" : 0, "scale" : 1}, "emissiveTexture" : {"index" : 7, "texCoord" : 0, "scale" : 1}, "emissiveFactor" : [1, 1, 1], "alphaMode" : "OPAQUE", "doubleSided" : true}], "meshes" : [{"primitives" : [{"attributes" : {"POSITION" : 1, "NORMAL" : 2, "TANGENT" : 3, "TEXCOORD_0" : 4}, "indices" : 0, "material" : 0, "mode" : 4}]}, {"primitives" : [{"attributes" : {"POSITION" : 6, "TANGENT" : 7, "NORMAL" : 8, "TEXCOORD_0" : 9}, "indices" : 5, "material" : 1, "mode" : 4}]}], "nodes" : [{"mesh" : 0, "name" : "sea_serpent_wings.2"}, {"mesh" : 1, "name" : "sea_serpent_body.3"}, {"children" : [0, 1], "name" : "sea_serpent.1"}, {"children" : [2], "matrix" : [0.009999999776482582, 0, 0, 0, 0, 0.009999999776482582, 0, 0, 0, 0, 0.009999999776482582, 0, 0, 0, 0, 1], "name" : "RootNode.0"}], "samplers" : [{"magFilter" : 9729, "minFilter" : 9985, "wrapS" : 10497, "wrapT" : 10497}, {"magFilter" : 9729, "minFilter" : 9985, "wrapS" : 10497, "wrapT" : 10497}, {"magFilter" : 9729, "minFilter" : 9985, "wrapS" : 10497, "wrapT" : 10497}, {"magFilter" : 9729, "minFilter" : 9985, "wrapS" : 10497, "wrapT" : 10497}, {"magFilter" : 9729, "minFilter" : 9985, "wrapS" : 10497, "wrapT" : 10497}, {"magFilter" : 9729, "minFilter" : 9985, "wrapS" : 10497, "wrapT" : 10497}, {"magFilter" : 9729, "minFilter" : 9985, "wrapS" : 10497, "wrapT" : 10497}, {"magFilter" : 9729, "minFilter" : 9985, "wrapS" : 10497, "wrapT" : 10497}, {"magFilter" : 9729, "minFilter" : 9985, "wrapS" : 10497, "wrapT" : 10497}, {"magFilter" : 9729, "minFilter" : 9985, "wrapS" : 10497, "wrapT" : 10497}, {"magFilter" : 9729, "minFilter" : 9985, "wrapS" : 10497, "wrapT" : 10497}, {"magFilter" : 9729, "minFilter" : 9985, "wrapS" : 10497, "wrapT" : 10497}, {"magFilter" : 9729, "minFilter" : 9985, "wrapS" : 10497, "wrapT" : 10497}, {"magFilter" : 9729, "minFilter" : 9985, "wrapS" : 10497, "wrapT" : 10497}], "scene" : 0, "scenes" : [{"nodes" : [3]}], "textures" : [{"sampler" : 0, "source" : 0}, {"sampler" : 1, "source" : 1}, {"sampler" : 2, "source" : 2}, {"sampler" : 3, "source" : 3}, {"sampler" : 4, "source" : 4}, {"sampler" : 5, "source" : 5}, {"sampler" : 6, "source" : 6}, {"sampler" : 7, "source" : 7}, {"sampler" : 8, "source" : 8}, {"sampler" : 9, "source" : 9}, {"sampler" : 10, "source" : 10}, {"sampler" : 11, "source" : 11}, {"sampler" : 12, "source" : 12}, {"sampler" : 13, "source" : 13}]}